<svg width="26" height="26" viewBox="0 0 26 26" fill="none" xmlns="http://www.w3.org/2000/svg">
<path d="M15.1438 19.9793C15.878 17.4096 15.5109 15.5741 12.9412 12.6373C10.0303 9.31057 12.5741 4.92821 14.4096 3.8269M14.4096 3.8269V6.76371M14.4096 3.8269L11.4728 4.194" stroke="white" stroke-width="2" stroke-linecap="round" stroke-linejoin="round"/>
<path d="M16.5567 2.35317C18.1475 1.8637 21.8429 1.69239 23.8987 4.92287C25.9545 8.15335 23.7763 11.8977 22.4303 13.3661M22.4303 10.4293L22.0632 13.7332" stroke="white" stroke-width="2" stroke-linecap="round" stroke-linejoin="round"/>
<path d="M25 13.3662L22.0632 13.7333" stroke="white" stroke-width="2" stroke-linecap="round" stroke-linejoin="round"/>
<path d="M5.42265 10.9435C4.20879 12.0822 2.22756 15.2064 4.01353 18.5935C5.7995 21.9807 10.1312 21.9459 12.0738 21.5051M9.52345 20.0488L12.5746 21.3683" stroke="white" stroke-width="2" stroke-linecap="round" stroke-linejoin="round"/>
<path d="M10.7994 23.7366L12.5745 21.3683" stroke="white" stroke-width="2" stroke-linecap="round" stroke-linejoin="round"/>
</svg>
