<svg width="26" height="26" viewBox="0 0 26 26" fill="none" xmlns="http://www.w3.org/2000/svg">
<path d="M6.84076 21.2861C1.91025 20.6929 0.897734 15.6743 1.00779 13.2391C1.00779 12.6592 1.50304 12.4665 1.75067 12.4427C6.00617 12.4335 14.9519 12.4207 16.6908 12.4427C18.4297 12.4647 19.1579 12.1589 19.3046 12.0033C18.204 10.3334 19.1395 8.39631 19.7448 7.63647C21.1976 8.2297 21.7258 9.71459 21.8084 10.3829C23.7234 10.0313 24.734 10.6392 25 10.9871C24.4057 13.0084 22.2761 13.3307 21.2856 13.2391C20.983 14.3652 19.3596 17.5235 17.5987 18.8418C15.8378 20.1601 13.0039 22.0276 6.84076 21.2861Z" fill="white"/>
<rect x="6.09088" y="6.90918" width="2.18182" height="2.18182" rx="0.3" fill="white"/>
<rect x="9" y="6.90918" width="2.18182" height="2.18182" rx="0.3" fill="white"/>
<rect x="11.9091" y="6.90918" width="2.18182" height="2.18182" rx="0.3" fill="white"/>
<rect x="11.9091" y="4" width="2.18182" height="2.18182" rx="0.3" fill="white"/>
<rect x="11.9091" y="9.81812" width="2.18182" height="2.18182" rx="0.3" fill="white"/>
<rect x="9" y="9.81812" width="2.18182" height="2.18182" rx="0.3" fill="white"/>
<rect x="6.09088" y="9.81812" width="2.18182" height="2.18182" rx="0.3" fill="white"/>
<rect x="3.18182" y="9.81812" width="2.18182" height="2.18182" rx="0.3" fill="white"/>
<rect x="14.8182" y="9.81812" width="2.18182" height="2.18182" rx="0.3" fill="white"/>
</svg>
