<svg width="17" height="16" viewBox="0 0 17 16" fill="none" xmlns="http://www.w3.org/2000/svg">
<path d="M7.16602 8.66648C7.45232 9.04923 7.81759 9.36594 8.23705 9.59511C8.65651 9.82428 9.12035 9.96056 9.59712 9.9947C10.0739 10.0288 10.5524 9.96006 11.0002 9.793C11.4481 9.62594 11.8548 9.36453 12.1927 9.02648L14.1927 7.02648C14.7999 6.39781 15.1359 5.5558 15.1283 4.68181C15.1207 3.80782 14.7701 2.97178 14.1521 2.35375C13.5341 1.73573 12.698 1.38516 11.824 1.37757C10.95 1.36997 10.108 1.70595 9.47935 2.31315L8.33268 3.45315" stroke="white" stroke-width="1.23" stroke-linecap="round" stroke-linejoin="round"/>
<path d="M9.83347 7.33332C9.54716 6.95057 9.18189 6.63387 8.76243 6.40469C8.34297 6.17552 7.87913 6.03924 7.40237 6.0051C6.9256 5.97095 6.44707 6.03974 5.99924 6.2068C5.5514 6.37386 5.14472 6.63527 4.8068 6.97332L2.8068 8.97332C2.19961 9.60199 1.86363 10.444 1.87122 11.318C1.87881 12.192 2.22938 13.028 2.8474 13.646C3.46543 14.2641 4.30147 14.6146 5.17546 14.6222C6.04945 14.6298 6.89146 14.2938 7.52013 13.6867L8.66013 12.5467" stroke="white" stroke-width="1.23" stroke-linecap="round" stroke-linejoin="round"/>
</svg>
