<svg width="26" height="26" viewBox="0 0 26 26" fill="none" xmlns="http://www.w3.org/2000/svg">
<path d="M3.48276 24.5862L8.44828 18.7931M23.3448 1.41382L18.3793 7.20692M18.3793 7.20692C16.1584 5.37792 9.97776 3.89539 2.2987 11.6198C1.55092 12.372 1.58632 13.5855 2.37648 14.2931C3.94709 15.6996 6.26439 17.5799 8.44828 18.7931M18.3793 7.20692L15.8966 10.1035M8.44828 18.7931L11.2857 15.4828M11.2857 15.4828C10.1034 14.2414 9.43954 12.3816 10.931 10.5173C12.1724 8.96554 14.2414 8.86209 15.8966 10.1035M11.2857 15.4828L15.8966 10.1035M11.2857 19.6207C13.8179 20.0176 19.8442 19.3488 24.4217 13.7455C24.7989 13.2837 24.9056 12.6597 24.5625 12.172C24.0101 11.3867 22.8897 10.2138 20.8621 8.86209" stroke="white" stroke-width="2" stroke-linecap="round" stroke-linejoin="round"/>
</svg>
