<svg width="26" height="26" viewBox="0 0 26 26" fill="none" xmlns="http://www.w3.org/2000/svg">
<path d="M8.26508 12.472L13.5488 17.747M8.26508 12.472L1 11.1534L6.2837 5.2192H15.53M8.26508 12.472L15.53 5.2192M13.5488 17.747C14.8809 16.4172 17.9567 13.3465 20.8139 10.4941M13.5488 17.747L14.8697 25L20.8139 19.0658V10.4941M15.53 5.2192L16.8511 3.90034C18.172 2.58162 21.6064 0.207924 24.7766 1.2629C25.2169 2.58167 25.305 6.01043 22.1348 9.17536C21.7049 9.60452 21.2621 10.0466 20.8139 10.4941M6.94416 16.4283C5.40308 16.8679 2.32092 18.9339 2.32092 23.6813C4.52244 23.6813 9.05757 22.7582 9.58601 19.0658" stroke="white" stroke-width="2" stroke-linecap="round" stroke-linejoin="round"/>
</svg>
