<svg width="138" height="8" viewBox="0 0 138 8" fill="none" xmlns="http://www.w3.org/2000/svg">
<path opacity="0.5" d="M1.68 3.40445V0.844453H3.02C4.06 0.844453 4.5 1.32445 4.5 2.13445C4.5 2.91445 4.06 3.40445 3.02 3.40445H1.68ZM5.43 2.13445C5.43 0.994453 4.66 0.0944529 3.02 0.0944529H0.77V7.06445H1.68V4.15445H3.02C4.75 4.15445 5.43 3.19445 5.43 2.13445ZM11.811 0.084453H8.06102V7.06445H11.811V6.31445H8.97102V3.91445H11.511V3.16445H8.97102V0.834453H11.811V0.084453ZM18.418 2.14445C18.418 2.92445 17.968 3.48445 16.938 3.48445H15.598V0.844453H16.938C17.978 0.844453 18.418 1.35445 18.418 2.14445ZM14.688 0.0944529V7.06445H15.598V4.21445H16.698L18.358 7.06445H19.448L17.698 4.14445C18.868 3.88445 19.358 3.03445 19.358 2.14445C19.358 1.00445 18.578 0.0944529 16.938 0.0944529H14.688ZM26.802 5.16445C26.802 2.58445 23.042 3.70445 23.042 1.90445C23.042 1.15445 23.632 0.764453 24.382 0.784453C25.232 0.794453 25.672 1.32445 25.732 1.79445H26.732C26.622 0.734453 25.752 0.00445282 24.422 0.00445282C23.042 0.00445282 22.112 0.784453 22.112 1.93445C22.112 4.52445 25.882 3.32445 25.882 5.20445C25.882 5.86445 25.362 6.36445 24.482 6.36445C23.512 6.36445 23.102 5.78445 23.042 5.20445H22.072C22.092 6.35445 23.082 7.13445 24.482 7.13445C25.992 7.13445 26.802 6.15445 26.802 5.16445ZM36.3011 3.57445C36.3011 1.48445 34.7711 0.0144527 32.8011 0.0144527C30.8411 0.0144527 29.3011 1.48445 29.3011 3.57445C29.3011 5.66445 30.8411 7.13445 32.8011 7.13445C34.7711 7.13445 36.3011 5.66445 36.3011 3.57445ZM30.2311 3.57445C30.2311 1.86445 31.3311 0.804453 32.8011 0.804453C34.2711 0.804453 35.3711 1.86445 35.3711 3.57445C35.3711 5.27445 34.2711 6.34445 32.8011 6.34445C31.3311 6.34445 30.2311 5.27445 30.2311 3.57445ZM43.5724 0.084453V5.62445L39.9124 0.084453H39.0024V7.06445H39.9124V1.51445L43.5724 7.06445H44.4824V0.084453H43.5724ZM52.2137 7.06445H53.1737L50.6637 0.134453H49.6137L47.0937 7.06445H48.0537L48.6137 5.51445H51.6537L52.2137 7.06445ZM51.3937 4.77445H48.8737L50.1337 1.25445L51.3937 4.77445ZM55.772 0.0944529V7.06445H59.122V6.32445H56.682V0.0944529H55.772ZM67.1644 7.07445L68.1744 7.06445L69.8544 1.45445L71.4744 7.06445H72.4944L74.5144 0.0944529H73.5344L72.0044 5.98445L70.4044 0.0944529H69.3844L67.7044 6.00445L66.1844 0.0944529H65.2144L67.1644 7.07445ZM83.6702 3.57445C83.6702 1.48445 82.1402 0.0144527 80.1702 0.0144527C78.2102 0.0144527 76.6702 1.48445 76.6702 3.57445C76.6702 5.66445 78.2102 7.13445 80.1702 7.13445C82.1402 7.13445 83.6702 5.66445 83.6702 3.57445ZM77.6002 3.57445C77.6002 1.86445 78.7002 0.804453 80.1702 0.804453C81.6402 0.804453 82.7402 1.86445 82.7402 3.57445C82.7402 5.27445 81.6402 6.34445 80.1702 6.34445C78.7002 6.34445 77.6002 5.27445 77.6002 3.57445ZM90.1016 2.14445C90.1016 2.92445 89.6516 3.48445 88.6216 3.48445H87.2816V0.844453H88.6216C89.6616 0.844453 90.1016 1.35445 90.1016 2.14445ZM86.3716 0.0944529V7.06445H87.2816V4.21445H88.3816L90.0416 7.06445H91.1316L89.3816 4.14445C90.5516 3.88445 91.0416 3.03445 91.0416 2.14445C91.0416 1.00445 90.2616 0.0944529 88.6216 0.0944529H86.3716ZM97.7355 7.06445H98.9255L95.7355 3.58445L98.8955 0.0944529H97.7455L94.8655 3.32445V0.0944529H93.9555V7.06445H94.8655V3.88445L97.7355 7.06445ZM105.972 5.16445C105.972 2.58445 102.212 3.70445 102.212 1.90445C102.212 1.15445 102.802 0.764453 103.552 0.784453C104.402 0.794453 104.842 1.32445 104.902 1.79445H105.902C105.792 0.734453 104.922 0.00445282 103.592 0.00445282C102.212 0.00445282 101.282 0.784453 101.282 1.93445C101.282 4.52445 105.052 3.32445 105.052 5.20445C105.052 5.86445 104.532 6.36445 103.652 6.36445C102.682 6.36445 102.272 5.78445 102.212 5.20445H101.242C101.262 6.35445 102.252 7.13445 103.652 7.13445C105.162 7.13445 105.972 6.15445 105.972 5.16445ZM109.721 3.40445V0.844453H111.061C112.101 0.844453 112.541 1.32445 112.541 2.13445C112.541 2.91445 112.101 3.40445 111.061 3.40445H109.721ZM113.471 2.13445C113.471 0.994453 112.701 0.0944529 111.061 0.0944529H108.811V7.06445H109.721V4.15445H111.061C112.791 4.15445 113.471 3.19445 113.471 2.13445ZM120.782 7.06445H121.742L119.232 0.134453H118.182L115.662 7.06445H116.622L117.182 5.51445H120.222L120.782 7.06445ZM119.962 4.77445H117.442L118.702 1.25445L119.962 4.77445ZM124 3.57445C124 5.66445 125.53 7.12445 127.48 7.12445C128.99 7.12445 130.19 6.37445 130.71 5.03445H129.62C129.24 5.86445 128.5 6.33445 127.48 6.33445C126.02 6.33445 124.93 5.27445 124.93 3.57445C124.93 1.86445 126.02 0.804453 127.48 0.804453C128.5 0.804453 129.24 1.27445 129.62 2.11445H130.71C130.19 0.764453 128.99 0.00445282 127.48 0.00445282C125.53 0.00445282 124 1.48445 124 3.57445ZM137.315 0.084453H133.565V7.06445H137.315V6.31445H134.475V3.91445H137.015V3.16445H134.475V0.834453H137.315V0.084453Z" fill="white"/>
</svg>
