<svg width="256" height="256" viewBox="0 0 256 256" fill="none" xmlns="http://www.w3.org/2000/svg">
<g clip-path="url(#clip0_1966_133039)">
<rect width="256" height="256" rx="20" fill="#0D0526"/>
<g filter="url(#filter0_d_1966_133039)">
<path d="M51.0719 96.448V115.721H195.62C198.224 115.721 200.482 114.853 202.392 113.117C204.475 111.207 205.517 108.863 205.517 106.085C205.517 103.48 204.475 101.223 202.392 99.3129C200.482 97.403 198.224 96.448 195.62 96.448H51.0719ZM194.578 71.4451C199.44 71.4451 203.954 72.4 208.121 74.31C212.462 76.0463 216.195 78.4771 219.321 81.6025C222.62 84.7279 225.137 88.3741 226.874 92.5413C228.784 96.7084 229.739 101.223 229.739 106.085C229.739 110.946 228.784 115.461 226.874 119.628C225.137 123.795 222.62 127.441 219.321 130.567C216.195 133.692 212.462 136.21 208.121 138.119C203.954 139.856 199.44 140.724 194.578 140.724H51.0719V172.498C51.0719 175.971 49.7696 178.923 47.1652 181.354C44.7343 183.785 41.8694 185 38.5704 185C35.0978 185 32.1461 183.785 29.7152 181.354C27.2844 178.923 26.069 175.971 26.069 172.498V83.9465C26.069 80.4739 27.2844 77.5222 29.7152 75.0913C32.1461 72.6605 35.0978 71.4451 38.5704 71.4451H194.578Z" fill="white"/>
</g>
</g>
<defs>
<filter id="filter0_d_1966_133039" x="-6.4869" y="38.8892" width="268.781" height="178.667" filterUnits="userSpaceOnUse" color-interpolation-filters="sRGB">
<feFlood flood-opacity="0" result="BackgroundImageFix"/>
<feColorMatrix in="SourceAlpha" type="matrix" values="0 0 0 0 0 0 0 0 0 0 0 0 0 0 0 0 0 0 127 0" result="hardAlpha"/>
<feOffset/>
<feGaussianBlur stdDeviation="16.2779"/>
<feComposite in2="hardAlpha" operator="out"/>
<feColorMatrix type="matrix" values="0 0 0 0 1 0 0 0 0 1 0 0 0 0 1 0 0 0 0.25 0"/>
<feBlend mode="normal" in2="BackgroundImageFix" result="effect1_dropShadow_1966_133039"/>
<feBlend mode="normal" in="SourceGraphic" in2="effect1_dropShadow_1966_133039" result="shape"/>
</filter>
<clipPath id="clip0_1966_133039">
<rect width="256" height="256" rx="20" fill="white"/>
</clipPath>
</defs>
</svg>
