<svg width="26" height="26" viewBox="0 0 26 26" fill="none" xmlns="http://www.w3.org/2000/svg">
<path d="M13 5.28564V9.14279" stroke="white" stroke-width="1.5" stroke-linecap="round" stroke-linejoin="round"/>
<path d="M13 16.8572V20.7143" stroke="white" stroke-width="1.5" stroke-linecap="round" stroke-linejoin="round"/>
<path d="M9.14288 13L5.28574 13" stroke="white" stroke-width="1.5" stroke-linecap="round" stroke-linejoin="round"/>
<path d="M20.7143 13L16.8572 13" stroke="white" stroke-width="1.5" stroke-linecap="round" stroke-linejoin="round"/>
<circle r="2.14286" transform="matrix(1 0 0 -1 13 3.14279)" stroke="white" stroke-width="1.5"/>
<circle r="2.14286" transform="matrix(1 0 0 -1 13 22.8571)" stroke="white" stroke-width="1.5"/>
<path d="M5.28571 8.28564V5.28564M5.28571 5.28564H8.49999M5.28571 5.28564L9.99999 9.99993" stroke="white" stroke-width="1.5" stroke-linecap="round" stroke-linejoin="round"/>
<path d="M5.28571 17.7144V20.7144M5.28571 20.7144H8.49999M5.28571 20.7144L9.99999 16.0001" stroke="white" stroke-width="1.5" stroke-linecap="round" stroke-linejoin="round"/>
<path d="M20.7143 8.28564V5.28564M20.7143 5.28564H17.5M20.7143 5.28564L16 9.99993" stroke="white" stroke-width="1.5" stroke-linecap="round" stroke-linejoin="round"/>
<path d="M20.7143 17.7144V20.7144M20.7143 20.7144H17.5M20.7143 20.7144L16 16.0001" stroke="white" stroke-width="1.5" stroke-linecap="round" stroke-linejoin="round"/>
<circle r="3.85714" transform="matrix(1 0 0 -1 13 13)" stroke="white" stroke-width="1.5"/>
<circle r="2.14286" transform="matrix(1 0 0 -1 3.14286 13)" stroke="white" stroke-width="1.5"/>
<circle r="2.14286" transform="matrix(1 0 0 -1 22.8572 13)" stroke="white" stroke-width="1.5"/>
</svg>
