<svg width="56" height="56" viewBox="0 0 56 56" fill="none" xmlns="http://www.w3.org/2000/svg">
<path d="M39.668 6.99989C40.2808 6.38706 41.0083 5.90093 41.8091 5.56926C42.6098 5.2376 43.468 5.06689 44.3346 5.06689C45.2013 5.06689 46.0595 5.2376 46.8602 5.56926C47.6609 5.90093 48.3885 6.38706 49.0013 6.99989C49.6141 7.61273 50.1003 8.34027 50.4319 9.14098C50.7636 9.94168 50.9343 10.7999 50.9343 11.6666C50.9343 12.5332 50.7636 13.3914 50.4319 14.1921C50.1003 14.9928 49.6141 15.7204 49.0013 16.3332L17.5013 47.8332L4.66797 51.3332L8.16797 38.4999L39.668 6.99989Z" stroke="white" stroke-width="3" stroke-linecap="round" stroke-linejoin="round"/>
</svg>
