<svg width="23" height="22" viewBox="0 0 23 22" fill="none" xmlns="http://www.w3.org/2000/svg">
<path d="M11.5001 21.1329L15.551 8.66583H7.44922L11.5001 21.1329H11.5001Z" fill="#E24329"/>
<path d="M11.5005 21.1328L7.44952 8.66571H1.77246L11.5005 21.1328Z" fill="#FC6D26"/>
<path d="M1.77203 8.66571L0.541055 12.4544C0.486322 12.6229 0.486315 12.8043 0.541034 12.9727C0.595752 13.1412 0.702389 13.288 0.84566 13.3921L11.5 21.1329L1.77194 8.6658L1.77203 8.66571Z" fill="#FCA326"/>
<path d="M1.77246 8.66579H7.44952L5.00985 1.15689C4.88429 0.770497 4.33769 0.770583 4.21222 1.15689L1.77246 8.66579Z" fill="#E24329"/>
<path d="M11.5001 21.1328L15.5509 8.66571H21.2281L11.5 21.1328H11.5001Z" fill="#FC6D26"/>
<path d="M21.228 8.66571L22.459 12.4544C22.5137 12.6229 22.5137 12.8043 22.4589 12.9727C22.4042 13.1412 22.2976 13.288 22.1543 13.3921L11.5 21.1329L21.228 8.6658V8.66571Z" fill="#FCA326"/>
<path d="M21.2279 8.66579H15.5508L17.9905 1.15689C18.1161 0.770497 18.6627 0.770583 18.7882 1.15689L21.2279 8.66579Z" fill="#E24329"/>
</svg>
