<svg width="20" height="20" viewBox="0 0 20 20" fill="none" xmlns="http://www.w3.org/2000/svg">
<path d="M18.1726 8.36788H17.5013V8.33329H10.0013V11.6666H14.7109C14.0238 13.607 12.1776 15 10.0013 15C7.24005 15 5.0013 12.7612 5.0013 9.99996C5.0013 7.23871 7.24005 4.99996 10.0013 4.99996C11.2759 4.99996 12.4355 5.48079 13.3184 6.26621L15.6755 3.90913C14.1871 2.52204 12.1963 1.66663 10.0013 1.66663C5.39922 1.66663 1.66797 5.39788 1.66797 9.99996C1.66797 14.602 5.39922 18.3333 10.0013 18.3333C14.6034 18.3333 18.3346 14.602 18.3346 9.99996C18.3346 9.44121 18.2771 8.89579 18.1726 8.36788Z" fill="#FFC107"/>
<path d="M2.62891 6.12121L5.36682 8.12913C6.10766 6.29496 7.90182 4.99996 10.0014 4.99996C11.276 4.99996 12.4356 5.48079 13.3185 6.26621L15.6756 3.90913C14.1872 2.52204 12.1964 1.66663 10.0014 1.66663C6.80057 1.66663 4.02474 3.47371 2.62891 6.12121Z" fill="#FF3D00"/>
<path d="M10.0008 18.3333C12.1533 18.3333 14.1091 17.5095 15.5879 16.1699L13.0087 13.9874C12.1439 14.6451 11.0872 15.0008 10.0008 14.9999C7.83328 14.9999 5.99286 13.6178 5.29953 11.6891L2.58203 13.7828C3.9612 16.4816 6.76203 18.3333 10.0008 18.3333Z" fill="#4CAF50"/>
<path d="M18.1713 8.36796H17.5V8.33337H10V11.6667H14.7096C14.3809 12.5902 13.7889 13.3972 13.0067 13.988L13.0079 13.9871L15.5871 16.1696C15.4046 16.3355 18.3333 14.1667 18.3333 10C18.3333 9.44129 18.2758 8.89587 18.1713 8.36796Z" fill="#1976D2"/>
</svg>
