<svg width="23" height="20" viewBox="0 0 23 20" fill="none" xmlns="http://www.w3.org/2000/svg">
<path d="M1.21436 0.103996C1.02694 0.102111 0.846441 0.174706 0.712516 0.305832C0.578591 0.436958 0.502199 0.615887 0.500126 0.803306C0.499308 0.844112 0.502466 0.884901 0.509555 0.925095L3.50166 19.0859C3.53896 19.3082 3.65337 19.5102 3.8248 19.6564C3.99622 19.8027 4.2137 19.8839 4.43905 19.8858H18.7937C18.963 19.8881 19.1275 19.8295 19.2572 19.7208C19.387 19.6121 19.4735 19.4604 19.5009 19.2934L22.4907 0.92431C22.5209 0.739961 22.477 0.551128 22.3685 0.399051C22.26 0.246973 22.0957 0.144007 21.9116 0.112639C21.8734 0.10638 21.8348 0.103226 21.7961 0.10321L1.21436 0.103996ZM13.8137 13.2329H9.23207L7.99138 6.75529H14.924L13.8137 13.2329Z" fill="#2684FF"/>
<path d="M21.5392 6.75439H14.924L13.8137 13.232H9.23209L3.82227 19.661C3.9931 19.8107 4.21191 19.8943 4.43907 19.8967H18.7977C18.967 19.8989 19.1314 19.8404 19.2612 19.7317C19.391 19.623 19.4774 19.4713 19.5049 19.3042L21.5392 6.75439Z" fill="url(#paint0_linear_1993_182397)"/>
<defs>
<linearGradient id="paint0_linear_1993_182397" x1="22.7532" y1="8.32465" x2="11.8229" y2="16.8573" gradientUnits="userSpaceOnUse">
<stop offset="0.18" stop-color="#0052CC"/>
<stop offset="1" stop-color="#2684FF"/>
</linearGradient>
</defs>
</svg>
