<svg width="56" height="56" viewBox="0 0 56 56" fill="none" xmlns="http://www.w3.org/2000/svg">
<path d="M17.8022 26.8628L29.1824 38.2244M17.8022 26.8628L2.1543 24.0228L13.5346 11.2413H33.4497M17.8022 26.8628L33.4497 11.2413M29.1824 38.2244C32.0516 35.36 38.6763 28.7463 44.8303 22.6026M29.1824 38.2244L32.0275 53.8461L44.8303 41.0647V22.6026M33.4497 11.2413L36.2951 8.4007C39.1402 5.56038 46.5373 0.447798 53.3655 2.72005C54.3139 5.56047 54.5035 12.9455 47.6754 19.7623C46.7495 20.6866 45.7957 21.6388 44.8303 22.6026M14.9571 35.384C11.6379 36.3308 4.99936 40.7806 4.99936 51.0058C9.74108 51.0058 19.5091 49.0176 20.6472 41.0647" stroke="white" stroke-width="3" stroke-linecap="round" stroke-linejoin="round"/>
</svg>
