<svg width="164" height="42" viewBox="0 0 164 42" fill="none" xmlns="http://www.w3.org/2000/svg">
<g filter="url(#filter0_d)">
<path d="M15.5098 15.9881V19.2876H40.256C40.7018 19.2876 41.0883 19.139 41.4152 18.8417C41.7719 18.5148 41.9503 18.1135 41.9503 17.6379C41.9503 17.192 41.7719 16.8056 41.4152 16.4786C41.0883 16.1516 40.7018 15.9881 40.256 15.9881H15.5098ZM40.0776 11.7077C40.9099 11.7077 41.6828 11.8712 42.3962 12.1982C43.1393 12.4954 43.7784 12.9116 44.3134 13.4466C44.8782 13.9817 45.3092 14.6059 45.6065 15.3193C45.9335 16.0327 46.0969 16.8056 46.0969 17.6379C46.0969 18.4702 45.9335 19.243 45.6065 19.9564C45.3092 20.6698 44.8782 21.2941 44.3134 21.8291C43.7784 22.3642 43.1393 22.7952 42.3962 23.1221C41.6828 23.4194 40.9099 23.568 40.0776 23.568H15.5098V29.0077C15.5098 29.6022 15.2869 30.1076 14.841 30.5237C14.4248 30.9399 13.9344 31.1479 13.3696 31.1479C12.7751 31.1479 12.2698 30.9399 11.8536 30.5237C11.4375 30.1076 11.2294 29.6022 11.2294 29.0077V13.8479C11.2294 13.2534 11.4375 12.7481 11.8536 12.3319C12.2698 11.9158 12.7751 11.7077 13.3696 11.7077H40.0776ZM52.1177 30.3454C51.6718 30.8804 51.1219 31.1479 50.4679 31.1479C49.8734 31.1479 49.3681 30.9399 48.952 30.5237C48.5358 30.1076 48.3277 29.6022 48.3277 29.0077C48.3277 28.4727 48.4764 28.0417 48.7736 27.7147L59.6084 13.1345C60.1137 12.4508 60.7826 11.9009 61.6149 11.4848C62.4472 11.0389 63.3389 10.8159 64.2901 10.8159C65.1819 10.8159 66.029 11.0092 66.8316 11.3956C67.6342 11.782 68.2881 12.3171 68.7935 13.0007L79.6283 27.4917C79.8066 27.6998 79.9553 27.9376 80.0742 28.2051C80.1931 28.4429 80.2525 28.7105 80.2525 29.0077C80.2525 29.6022 80.0444 30.1076 79.6283 30.5237C79.2121 30.9399 78.7068 31.1479 78.1123 31.1479C77.3989 31.1479 76.8341 30.8655 76.418 30.3008L66.029 16.434C65.821 16.1962 65.5534 15.9435 65.2265 15.676C64.9292 15.3788 64.6171 15.2301 64.2901 15.2301C63.9631 15.2301 63.6362 15.3788 63.3092 15.676C63.0119 15.9435 62.7741 16.1962 62.5958 16.434L52.1177 30.3454ZM111.972 11.7077C112.567 11.7077 113.072 11.9158 113.488 12.3319C113.905 12.7481 114.113 13.2534 114.113 13.8479C114.113 14.4424 113.905 14.9477 113.488 15.3639C113.072 15.78 112.567 15.9881 111.972 15.9881H98.7745V29.0077C98.7745 29.6022 98.5664 30.1076 98.1503 30.5237C97.7341 30.9399 97.2288 31.1479 96.6343 31.1479C96.0398 31.1479 95.5345 30.9399 95.1183 30.5237C94.7022 30.1076 94.4941 29.6022 94.4941 29.0077V15.9881H81.1178C80.5827 15.9287 80.122 15.7057 79.7356 15.3193C79.3491 14.9032 79.1559 14.4127 79.1559 13.8479C79.1559 13.2534 79.364 12.7481 79.7802 12.3319C80.1963 11.9158 80.7016 11.7077 81.2961 11.7077H111.972ZM147.232 23.568C148.034 24.0734 148.852 24.6233 149.684 25.2178C150.517 25.7825 151.364 26.4068 152.226 27.0905C152.553 27.3283 152.835 27.6106 153.073 27.9376C153.311 28.2349 153.43 28.5916 153.43 29.0077C153.43 29.6022 153.222 30.1076 152.805 30.5237C152.389 30.9399 151.884 31.1479 151.289 31.1479C150.784 31.1479 150.279 30.9399 149.773 30.5237C148.555 29.632 147.306 28.7699 146.028 27.9376C144.75 27.1053 143.412 26.3622 142.015 25.7082C140.648 25.0543 139.221 24.5341 137.735 24.1477C136.248 23.7612 134.703 23.568 133.098 23.568H124.225C123.838 23.6275 123.511 23.8058 123.244 24.1031C122.976 24.4003 122.842 24.7719 122.842 25.2178V29.0077C122.842 29.6022 122.62 30.1076 122.174 30.5237C121.757 30.9399 121.267 31.1479 120.702 31.1479C120.108 31.1479 119.602 30.9399 119.186 30.5237C118.77 30.1076 118.562 29.6022 118.562 29.0077V24.7273C118.562 23.9842 118.696 23.2856 118.963 22.6317C119.261 21.948 119.647 21.3684 120.123 20.8928C120.598 20.3874 121.163 20.001 121.817 19.7335C122.471 19.4362 123.184 19.2876 123.957 19.2876H147.589C148.034 19.2876 148.421 19.139 148.748 18.8417C149.105 18.5148 149.283 18.1135 149.283 17.6379C149.283 17.192 149.105 16.8056 148.748 16.4786C148.421 16.1516 148.034 15.9881 147.589 15.9881H120.702C120.108 15.9881 119.602 15.78 119.186 15.3639C118.77 14.9477 118.562 14.4424 118.562 13.8479C118.562 13.2534 118.77 12.7481 119.186 12.3319C119.602 11.9158 120.108 11.7077 120.702 11.7077H147.41C148.243 11.7077 149.015 11.8712 149.729 12.1982C150.472 12.4954 151.111 12.9116 151.646 13.4466C152.211 13.9817 152.642 14.6059 152.939 15.3193C153.266 16.0327 153.43 16.8056 153.43 17.6379C153.43 18.4702 153.266 19.243 152.939 19.9564C152.642 20.6698 152.211 21.2941 151.646 21.8291C151.111 22.3642 150.472 22.7952 149.729 23.1221C149.015 23.4194 148.243 23.568 147.41 23.568H147.232Z" fill="white"/>
</g>
<defs>
<filter id="filter0_d" x="0.778278" y="0.365681" width="163.101" height="41.2325" filterUnits="userSpaceOnUse" color-interpolation-filters="sRGB">
<feFlood flood-opacity="0" result="BackgroundImageFix"/>
<feColorMatrix in="SourceAlpha" type="matrix" values="0 0 0 0 0 0 0 0 0 0 0 0 0 0 0 0 0 0 127 0" result="hardAlpha"/>
<feOffset/>
<feGaussianBlur stdDeviation="5.22512"/>
<feComposite in2="hardAlpha" operator="out"/>
<feColorMatrix type="matrix" values="0 0 0 0 1 0 0 0 0 1 0 0 0 0 1 0 0 0 0.25 0"/>
<feBlend mode="normal" in2="BackgroundImageFix" result="effect1_dropShadow"/>
<feBlend mode="normal" in="SourceGraphic" in2="effect1_dropShadow" result="shape"/>
</filter>
</defs>
</svg>
