<svg width="1921" height="1080" viewBox="0 0 1921 1080" fill="none" xmlns="http://www.w3.org/2000/svg">
<mask id="mask0_26_175" style="mask-type:luminance" maskUnits="userSpaceOnUse" x="0" y="0" width="1921" height="1080">
<path d="M1920.25 0H0.25V1080H1920.25V0Z" fill="white"/>
</mask>
<g mask="url(#mask0_26_175)">
<path d="M1920.25 0H0.25V1080H1920.25V0Z" fill="url(#paint0_linear_26_175)"/>
<g filter="url(#filter0_f_26_175)">
<path d="M174.664 337.43C287.61 337.43 379.17 245.87 379.17 132.924C379.17 19.9784 287.61 -71.582 174.664 -71.582C61.7187 -71.582 -29.8418 19.9784 -29.8418 132.924C-29.8418 245.87 61.7187 337.43 174.664 337.43Z" fill="#03011F"/>
</g>
<g filter="url(#filter1_f_26_175)">
<path d="M1847.95 1190.47C1960.9 1190.47 2052.46 1098.91 2052.46 985.969C2052.46 873.023 1960.9 781.463 1847.95 781.463C1735 781.463 1643.44 873.023 1643.44 985.969C1643.44 1098.91 1735 1190.47 1847.95 1190.47Z" fill="#13011F"/>
</g>
<path opacity="0.1" d="M447.566 1261.81C217.514 953.943 332.54 713.74 471.248 637.62C795.864 459.477 1226.3 520.981 1599.52 336.521C1978.64 149.149 1973.92 19.6335 2078.24 -88.0631" stroke="black" stroke-width="116"/>
<path opacity="0.02" d="M323.168 591.414C137.995 799.958 204.065 991.423 260.246 1061.09L345.641 1189.18L-124.032 1227.38L-175.719 -53.543L1615.33 -183.883C1577.13 -117.964 1470.84 38.4756 1309.04 115.781C1106.79 212.412 554.633 330.735 323.168 591.414Z" fill="white"/>
<path opacity="0.02" d="M669.195 713.876C437.204 746.163 334.357 995.529 426.494 1091.41L350.086 1273.44L2091.7 1230.74L2199.56 354.317C2114.92 358.062 1915.26 545.435 1711.91 621.739C1329.18 765.354 1097.95 654.203 669.195 713.876Z" fill="white"/>
<path d="M1265.86 88.9823C1266.66 88.9823 1267.32 88.3308 1267.32 87.5272C1267.32 86.7236 1266.66 86.0721 1265.86 86.0721C1265.06 86.0721 1264.41 86.7236 1264.41 87.5272C1264.41 88.3308 1265.06 88.9823 1265.86 88.9823Z" fill="white"/>
<path d="M1844.8 1028.91C1845.6 1028.91 1846.25 1029.56 1846.25 1030.36C1846.25 1031.17 1845.6 1031.82 1844.8 1031.82C1843.99 1031.82 1843.34 1031.17 1843.34 1030.36C1843.34 1029.56 1843.99 1028.91 1844.8 1028.91Z" fill="white"/>
<path d="M1301.22 239.326C1302.02 239.326 1302.68 238.675 1302.68 237.871C1302.68 237.067 1302.02 236.416 1301.22 236.416C1300.42 236.416 1299.77 237.067 1299.77 237.871C1299.77 238.675 1300.42 239.326 1301.22 239.326Z" fill="white"/>
<path d="M1880.16 879.567C1880.96 879.567 1881.61 880.218 1881.61 881.022C1881.61 881.826 1880.96 882.477 1880.16 882.477C1879.35 882.477 1878.7 881.826 1878.7 881.022C1878.7 880.218 1879.35 879.567 1880.16 879.567Z" fill="white"/>
<path d="M935.596 82.7206C936.4 82.7206 937.051 82.0691 937.051 81.2655C937.051 80.4619 936.4 79.8104 935.596 79.8104C934.793 79.8104 934.141 80.4619 934.141 81.2655C934.141 82.0691 934.793 82.7206 935.596 82.7206Z" fill="white"/>
<path d="M1514.54 1036.17C1515.34 1036.17 1515.99 1036.82 1515.99 1037.62C1515.99 1038.43 1515.34 1039.08 1514.54 1039.08C1513.73 1039.08 1513.08 1038.43 1513.08 1037.62C1513.08 1036.82 1513.73 1036.17 1514.54 1036.17Z" fill="white"/>
<path d="M580.709 259.533C581.513 259.533 582.164 258.881 582.164 258.078C582.164 257.274 581.513 256.623 580.709 256.623C579.905 256.623 579.254 257.274 579.254 258.078C579.254 258.881 579.905 259.533 580.709 259.533Z" fill="white"/>
<path d="M526.328 504.929C527.934 504.929 529.236 503.627 529.236 502.021C529.236 500.415 527.934 499.113 526.328 499.113C524.722 499.113 523.42 500.415 523.42 502.021C523.42 503.627 524.722 504.929 526.328 504.929Z" fill="white"/>
<path d="M376.262 714.482C377.868 714.482 379.17 713.18 379.17 711.574C379.17 709.968 377.868 708.666 376.262 708.666C374.656 708.666 373.354 709.968 373.354 711.574C373.354 713.18 374.656 714.482 376.262 714.482Z" fill="white"/>
<path d="M67.2847 104.063C68.8908 104.063 70.1929 102.761 70.1929 101.155C70.1929 99.5487 68.8908 98.2467 67.2847 98.2467C65.6785 98.2467 64.3765 99.5487 64.3765 101.155C64.3765 102.761 65.6785 104.063 67.2847 104.063Z" fill="white"/>
<path d="M1066.2 1015.93C1067.81 1015.93 1069.11 1014.63 1069.11 1013.02C1069.11 1011.41 1067.81 1010.11 1066.2 1010.11C1064.59 1010.11 1063.29 1011.41 1063.29 1013.02C1063.29 1014.63 1064.59 1015.93 1066.2 1015.93Z" fill="white"/>
<path d="M1547.73 109.088C1549.06 109.088 1550.14 107.786 1550.14 106.18C1550.14 104.574 1549.06 103.272 1547.73 103.272C1546.4 103.272 1545.32 104.574 1545.32 106.18C1545.32 107.786 1546.4 109.088 1547.73 109.088Z" fill="white"/>
<path d="M1833.62 859.359C1835.23 859.359 1836.53 858.057 1836.53 856.451C1836.53 854.845 1835.23 853.543 1833.62 853.543C1832.01 853.543 1830.71 854.845 1830.71 856.451C1830.71 858.057 1832.01 859.359 1833.62 859.359Z" fill="white"/>
<path d="M259.846 39.1875C261.452 39.1875 262.754 37.8854 262.754 36.2793C262.754 34.6731 261.452 33.3711 259.846 33.3711C258.24 33.3711 256.938 34.6731 256.938 36.2793C256.938 37.8854 258.24 39.1875 259.846 39.1875Z" fill="white"/>
<path d="M1159.65 859.36C1160.45 859.36 1161.1 860.011 1161.1 860.815C1161.1 861.619 1160.45 862.27 1159.65 862.27C1158.84 862.27 1158.19 861.619 1158.19 860.815C1158.19 860.011 1158.84 859.36 1159.65 859.36Z" fill="white"/>
<path d="M1814.86 950.347C1815.07 951.123 1814.61 951.921 1813.83 952.129C1813.05 952.337 1812.26 951.877 1812.05 951.1C1811.84 950.324 1812.3 949.526 1813.08 949.318C1813.85 949.11 1814.65 949.571 1814.86 950.347Z" fill="white"/>
<path d="M630.91 174.916C631.714 174.916 632.365 174.265 632.365 173.461C632.365 172.657 631.714 172.006 630.91 172.006C630.107 172.006 629.455 172.657 629.455 173.461C629.455 174.265 630.107 174.916 630.91 174.916Z" fill="white"/>
<path d="M1209.85 943.977C1210.65 943.977 1211.3 944.628 1211.3 945.432C1211.3 946.236 1210.65 946.887 1209.85 946.887C1209.04 946.887 1208.39 946.236 1208.39 945.432C1208.39 944.628 1209.04 943.977 1209.85 943.977Z" fill="white"/>
<path d="M1746.11 1020.74C1746.32 1021.52 1745.86 1022.32 1745.08 1022.52C1744.3 1022.73 1743.51 1022.27 1743.3 1021.5C1743.09 1020.72 1743.55 1019.92 1744.33 1019.71C1745.1 1019.51 1745.9 1019.97 1746.11 1020.74Z" fill="white"/>
<path d="M400.355 437.292C401.159 437.292 401.811 436.641 401.811 435.837C401.811 435.033 401.159 434.382 400.355 434.382C399.552 434.382 398.9 435.033 398.9 435.837C398.9 436.641 399.552 437.292 400.355 437.292Z" fill="white"/>
<path d="M403.266 132.924C404.07 132.924 404.721 132.273 404.721 131.469C404.721 130.665 404.07 130.014 403.266 130.014C402.462 130.014 401.811 130.665 401.811 131.469C401.811 132.273 402.462 132.924 403.266 132.924Z" fill="white"/>
<path d="M982.205 985.969C983.009 985.969 983.66 986.62 983.66 987.424C983.66 988.227 983.009 988.879 982.205 988.879C981.401 988.879 980.75 988.227 980.75 987.424C980.75 986.62 981.401 985.969 982.205 985.969Z" fill="white"/>
<path d="M1646.63 811.718C1646.84 812.494 1646.38 813.292 1645.6 813.5C1644.82 813.708 1644.03 813.248 1643.82 812.471C1643.61 811.695 1644.07 810.897 1644.85 810.689C1645.62 810.481 1646.42 810.942 1646.63 811.718Z" fill="white"/>
</g>
<defs>
<filter id="filter0_f_26_175" x="-1029.84" y="-1071.58" width="2409.01" height="2409.01" filterUnits="userSpaceOnUse" color-interpolation-filters="sRGB">
<feFlood flood-opacity="0" result="BackgroundImageFix"/>
<feBlend mode="normal" in="SourceGraphic" in2="BackgroundImageFix" result="shape"/>
<feGaussianBlur stdDeviation="500" result="effect1_foregroundBlur_26_175"/>
</filter>
<filter id="filter1_f_26_175" x="643.444" y="-218.537" width="2409.01" height="2409.01" filterUnits="userSpaceOnUse" color-interpolation-filters="sRGB">
<feFlood flood-opacity="0" result="BackgroundImageFix"/>
<feBlend mode="normal" in="SourceGraphic" in2="BackgroundImageFix" result="shape"/>
<feGaussianBlur stdDeviation="500" result="effect1_foregroundBlur_26_175"/>
</filter>
<linearGradient id="paint0_linear_26_175" x1="643.938" y1="-100.316" x2="960.25" y2="1080" gradientUnits="userSpaceOnUse">
<stop stop-color="#080418"/>
<stop offset="0.515625" stop-color="#10092D"/>
<stop offset="1" stop-color="#080418"/>
</linearGradient>
</defs>
</svg>
