<svg width="20" height="21" viewBox="0 0 20 21" fill="none" xmlns="http://www.w3.org/2000/svg">
<g clip-path="url(#clip0_5783_48464)">
<path d="M2.3363 10.493C2.3363 7.74321 2.33518 4.99373 2.33687 2.24397C2.33743 1.38998 2.9061 0.695649 3.7348 0.532608C3.84415 0.510963 3.95799 0.501406 4.06959 0.501406C8.02782 0.5 11.986 0.5 15.9443 0.5C16.8938 0.5 17.6568 1.26798 17.6576 2.23385C17.6599 5.25994 17.6587 8.28602 17.6587 11.3118C17.6587 12.6982 17.6568 14.0849 17.6613 15.4713C17.6618 15.6408 17.607 15.7611 17.4774 15.8708C15.7067 17.3668 13.9389 18.8659 12.1721 20.3668C12.0662 20.457 11.9565 20.5 11.8163 20.5C9.254 20.4975 6.69173 20.4989 4.12947 20.4978C3.07505 20.4975 2.33602 19.7542 2.3363 18.6998C2.3363 15.9641 2.3363 13.2287 2.3363 10.493V10.493ZM3.13801 10.4994C3.13801 13.2351 3.13745 15.9708 3.13829 18.7066C3.13829 19.3005 3.51582 19.693 4.08927 19.6932C6.4691 19.6946 8.84864 19.6938 11.2285 19.6935C11.4334 19.6935 11.4463 19.6797 11.4463 19.4802C11.4463 18.6276 11.4469 17.775 11.4458 16.9224C11.4458 16.7813 11.4559 16.6416 11.4868 16.5038C11.6701 15.6917 12.3529 15.1531 13.2086 15.1512C14.3608 15.1486 15.5133 15.1511 16.6659 15.1506C16.8542 15.1506 16.861 15.1427 16.861 14.9516C16.861 14.7078 16.8612 14.4644 16.8612 14.2207C16.8612 10.2529 16.8567 6.28512 16.8655 2.31734C16.8669 1.67698 16.3912 1.28625 15.8504 1.29637C14.7406 1.31717 13.6299 1.30255 12.5199 1.30255C9.71388 1.30255 6.9079 1.3034 4.10192 1.30143C3.76207 1.30143 3.49417 1.42989 3.29712 1.70566C3.16247 1.894 3.13717 2.10876 3.13717 2.33364C3.13886 5.05529 3.13829 7.77694 3.13801 10.4989V10.4994ZM14.4645 15.9509C14.0198 15.9509 13.5751 15.9489 13.1304 15.9515C12.5702 15.9545 12.1778 16.3495 12.1769 16.9095C12.1758 17.6162 12.1764 18.3231 12.1778 19.0298C12.1778 19.0787 12.1533 19.1431 12.2095 19.1712C12.2736 19.2033 12.3104 19.1375 12.3498 19.104C13.5358 18.1005 14.7206 17.0955 15.9052 16.0903C15.9389 16.0616 15.9991 16.0378 15.9803 15.9841C15.9606 15.9287 15.899 15.952 15.8552 15.952C15.3919 15.9506 14.9284 15.9512 14.4651 15.9512L14.4645 15.9509Z" fill="white"/>
<path d="M4.09767 15.6751C4.10188 13.9283 5.52427 12.5155 7.27161 12.5225C9.0094 12.5295 10.4113 13.9477 10.409 15.6959C10.4065 17.4424 8.97735 18.8499 7.21399 18.8423C5.49897 18.835 4.09345 17.4064 4.09767 15.6751V15.6751ZM4.71778 15.6697C4.71216 17.0677 5.83883 18.2134 7.22776 18.2219C8.63328 18.2306 9.78356 17.1011 9.78834 15.7077C9.79312 14.2895 8.67179 13.1491 7.26571 13.1423C5.86497 13.1356 4.7234 14.2679 4.71778 15.6697V15.6697Z" fill="white"/>
<path d="M10.0022 8.77827C8.21779 8.77827 6.43362 8.77742 4.64917 8.77939C4.4614 8.77939 4.30791 8.72598 4.21402 8.55423C4.07179 8.29336 4.22443 7.97881 4.51705 7.92989C4.57215 7.92062 4.62893 7.9209 4.68516 7.9209C8.23522 7.9209 11.7853 7.9209 15.3351 7.92146C15.3865 7.92146 15.4385 7.92034 15.4894 7.92765C15.7132 7.95941 15.8669 8.14438 15.8582 8.36842C15.8501 8.58318 15.685 8.7569 15.4675 8.77602C15.407 8.78136 15.3458 8.77883 15.285 8.77883C13.5242 8.77883 11.7631 8.77883 10.0022 8.77883V8.77827Z" fill="white"/>
<path d="M10.0154 3.86074C8.22168 3.86074 6.42796 3.86074 4.63451 3.86074C4.39698 3.86074 4.24631 3.75926 4.18053 3.55968C4.10238 3.3213 4.25727 3.05875 4.50464 3.01687C4.57323 3.00534 4.64463 3.00618 4.71463 3.00618C8.24586 3.00562 11.7768 3.0059 15.308 3.00618C15.3643 3.00618 15.4208 3.00506 15.4764 3.01096C15.7064 3.03514 15.8666 3.22179 15.8584 3.45286C15.8506 3.67128 15.6752 3.84809 15.4528 3.86046C15.4106 3.86271 15.3685 3.8613 15.3263 3.8613C13.5562 3.8613 11.7858 3.8613 10.0157 3.8613L10.0154 3.86074Z" fill="white"/>
<path d="M10.0071 6.31744C8.26511 6.31744 6.52283 6.31744 4.78083 6.31744C4.71055 6.31744 4.64027 6.31828 4.57028 6.31463C4.33781 6.30198 4.16633 6.1246 4.16408 5.89606C4.16184 5.66191 4.33696 5.4775 4.5745 5.46569C4.63044 5.46288 4.68694 5.46457 4.74316 5.46457C8.25555 5.46457 11.7677 5.46457 15.2801 5.46457C15.3456 5.46457 15.4116 5.46176 15.4766 5.46738C15.6972 5.4865 15.8628 5.67118 15.8617 5.89325C15.8605 6.11617 15.6941 6.29776 15.4723 6.3135C15.3931 6.31913 15.3132 6.31744 15.2337 6.31744C13.4917 6.31744 11.7494 6.31744 10.0074 6.31744H10.0071Z" fill="white"/>
<path d="M10.0043 11.2351C8.68538 11.2351 7.36672 11.2351 6.04778 11.2351C5.57496 11.2351 5.10243 11.2351 4.62961 11.2337C4.34569 11.2329 4.15876 11.0609 4.16016 10.8062C4.16185 10.5532 4.34963 10.3811 4.63382 10.3814C6.91414 10.382 9.19446 10.3845 11.4748 10.3851C12.7667 10.3851 14.059 10.3825 15.3509 10.3809C15.4549 10.3809 15.557 10.3848 15.6495 10.4407C15.8105 10.538 15.8912 10.73 15.8465 10.9133C15.8013 11.0994 15.6399 11.2315 15.4355 11.2326C14.8596 11.2365 14.2836 11.2349 13.7076 11.2351C12.473 11.2351 11.2384 11.2351 10.0038 11.2351H10.0043Z" fill="white"/>
<path d="M13.6559 13.6959C13.0706 13.6959 12.4851 13.6987 11.8998 13.6947C11.5858 13.6928 11.3789 13.4167 11.4714 13.1345C11.5344 12.9425 11.6921 12.8399 11.9321 12.8396C12.5315 12.8388 13.1308 12.8393 13.7304 12.8393C14.2923 12.8393 14.8542 12.8376 15.4161 12.8407C15.6371 12.8419 15.8027 12.9745 15.8474 13.1722C15.8915 13.3667 15.7959 13.5632 15.6155 13.6523C15.5373 13.6908 15.4547 13.697 15.3698 13.6967C14.7986 13.6961 14.2271 13.6964 13.6559 13.6964V13.6959Z" fill="white"/>
<path d="M6.96654 16.2067C7.0489 15.9585 6.92747 15.8109 6.62837 15.7092C6.24466 15.5787 6.06195 15.231 6.09765 14.8445C6.13082 14.4849 6.40264 14.1875 6.80266 14.1055C6.93702 14.0779 6.9761 14.0312 6.97019 13.8977C6.96007 13.6728 6.94602 13.7068 7.16134 13.7035C7.18468 13.7032 7.20829 13.7023 7.23162 13.7035C7.32888 13.7097 7.44751 13.6644 7.51807 13.722C7.58722 13.7785 7.54336 13.8983 7.54336 13.9896C7.54336 14.0776 7.59874 14.0821 7.66059 14.0956C8.06931 14.1839 8.33917 14.4178 8.42575 14.8377C8.45976 15.0025 8.45217 15.0095 8.28042 15.0159C8.1542 15.0207 8.02743 15.0204 7.90149 15.0294C7.83234 15.0342 7.80058 15.0126 7.78568 14.9431C7.76347 14.8408 7.71371 14.7506 7.62854 14.6842C7.57654 14.6435 7.54505 14.6455 7.54533 14.7228C7.54618 14.9007 7.54814 15.0786 7.54421 15.2566C7.5428 15.3263 7.58469 15.3401 7.63641 15.3569C7.75644 15.3963 7.87844 15.4317 7.99313 15.4831C8.36194 15.6484 8.54185 15.9408 8.53145 16.3414C8.52105 16.7377 8.33186 17.0253 7.96615 17.1889C7.86776 17.233 7.76403 17.2656 7.65637 17.2757C7.5681 17.2839 7.54112 17.3238 7.54224 17.4121C7.54505 17.6603 7.54112 17.6603 7.29121 17.6603C7.28644 17.6603 7.28194 17.6606 7.27716 17.6603C7.18018 17.653 7.06099 17.6999 6.99156 17.6392C6.92465 17.5807 6.96851 17.4618 6.96851 17.3702C6.96851 17.292 6.92747 17.2808 6.86647 17.2682C6.37369 17.1667 6.10102 16.8513 5.99673 16.3709C5.97452 16.2683 5.99083 16.214 6.10973 16.2109C6.23595 16.2075 6.36217 16.1932 6.48726 16.1761C6.56793 16.1648 6.60223 16.1884 6.62134 16.2705C6.65789 16.4288 6.73322 16.5674 6.87293 16.6629C6.93955 16.7085 6.97076 16.7059 6.96766 16.614C6.96373 16.4971 6.96682 16.3799 6.96682 16.2064L6.96654 16.2067ZM7.54561 16.361C7.54561 16.4586 7.54561 16.5564 7.54561 16.6539C7.54561 16.7003 7.54561 16.7363 7.61505 16.7152C7.76122 16.6708 7.89924 16.4915 7.89756 16.3352C7.89615 16.1904 7.78849 16.0704 7.62601 16.0192C7.5577 15.9976 7.54393 16.0217 7.54505 16.0819C7.54674 16.1749 7.54561 16.268 7.54561 16.361V16.361ZM6.96682 14.897H6.96626C6.96626 14.8318 6.96513 14.7663 6.96654 14.7011C6.96823 14.6367 6.94658 14.6143 6.88305 14.6452C6.78551 14.6927 6.70652 14.7573 6.69921 14.8726C6.69218 14.9805 6.74812 15.0595 6.84201 15.1104C6.87406 15.1275 6.91622 15.1579 6.94152 15.1489C6.98931 15.1318 6.96204 15.0761 6.9657 15.0373C6.96991 14.9909 6.96654 14.944 6.96654 14.8973L6.96682 14.897Z" fill="white"/>
</g>
<defs>
<clipPath id="clip0_5783_48464">
<rect width="20" height="20" fill="white" transform="translate(0 0.5)"/>
</clipPath>
</defs>
</svg>
