<svg width="26" height="26" viewBox="0 0 26 26" fill="none" xmlns="http://www.w3.org/2000/svg">
<circle cx="13" cy="13" r="11" stroke="white" stroke-width="2"/>
<path d="M18.0385 13C18.0385 16.2582 17.4279 19.1836 16.4623 21.2758C15.4771 23.4104 14.2168 24.5 13 24.5C11.7832 24.5 10.5229 23.4104 9.53771 21.2758C8.5721 19.1836 7.96155 16.2582 7.96155 13C7.96155 9.74181 8.5721 6.81639 9.53771 4.72425C10.5229 2.58963 11.7832 1.5 13 1.5C14.2168 1.5 15.4771 2.58963 16.4623 4.72425C17.4279 6.81639 18.0385 9.74181 18.0385 13Z" stroke="white"/>
<path d="M13 1.9231V24.0769" stroke="white" stroke-linecap="round" stroke-linejoin="round"/>
<path d="M1.46155 13H24.5385M3.76924 6.0769C6.84616 7.30767 14.8462 9.03075 22.2308 6.0769" stroke="white" stroke-linecap="round" stroke-linejoin="round"/>
<path d="M22.2308 19.9231C19.1539 18.6923 11.1539 16.9693 3.76924 19.9231" stroke="white" stroke-linecap="round" stroke-linejoin="round"/>
</svg>
