<svg width="26" height="26" viewBox="0 0 26 26" fill="none" xmlns="http://www.w3.org/2000/svg">
<path d="M12.8232 4.17678L9.04213 7.95784C8.88464 8.11533 8.99618 8.38462 9.21891 8.38462H10.4423C10.5804 8.38462 10.6923 8.49654 10.6923 8.63461V12.75C10.6923 12.8881 10.8042 13 10.9423 13H15.0577C15.1957 13 15.3077 12.8881 15.3077 12.75V8.63462C15.3077 8.49654 15.4196 8.38462 15.5577 8.38462H16.781C17.0038 8.38462 17.1153 8.11533 16.9578 7.95784L13.1767 4.17678C13.0791 4.07915 12.9208 4.07915 12.8232 4.17678Z" fill="white"/>
<rect x="10.6923" y="13.9231" width="4.61538" height="1.38462" rx="0.25" fill="white"/>
<rect x="10.6923" y="16.0576" width="4.61538" height="1.38462" rx="0.25" fill="white"/>
<rect x="10.6923" y="18.1921" width="4.61538" height="1.38462" rx="0.25" fill="white"/>
<rect x="10.6923" y="20.3267" width="4.61538" height="1.38462" rx="0.25" fill="white"/>
<circle cx="13" cy="13" r="11" stroke="white" stroke-width="2"/>
</svg>
